<mxfile host="app.diagrams.net" modified="2024-05-25T13:07:17.371Z" agent="Mozilla/5.0 (Windows NT 10.0; Win64; x64) AppleWebKit/537.36 (KHTML, like Gecko) Chrome/125.0.0.0 Safari/537.36" etag="UrevC6hijeRMeZOZ8E7t" version="24.4.8" type="github">
  <diagram id="C5RBs43oDa-KdzZeNtuy" name="Page-1">
    <mxGraphModel dx="1195" dy="2960" grid="1" gridSize="10" guides="1" tooltips="1" connect="1" arrows="1" fold="1" page="1" pageScale="1" pageWidth="827" pageHeight="1169" math="0" shadow="0">
      <root>
        <mxCell id="WIyWlLk6GJQsqaUBKTNV-0" />
        <mxCell id="WIyWlLk6GJQsqaUBKTNV-1" parent="WIyWlLk6GJQsqaUBKTNV-0" />
        <mxCell id="RRcPQt79kSkmYTHiTDWC-53" value="" style="rounded=0;whiteSpace=wrap;html=1;sketch=1;hachureGap=4;jiggle=2;curveFitting=1;fontFamily=Architects Daughter;fontSource=https%3A%2F%2Ffonts.googleapis.com%2Fcss%3Ffamily%3DArchitects%2BDaughter;labelBackgroundColor=none;fillColor=#A8DADC;strokeColor=#006658;fontColor=#1D3557;" vertex="1" parent="WIyWlLk6GJQsqaUBKTNV-1">
          <mxGeometry x="490" y="-940" width="790" height="358" as="geometry" />
        </mxCell>
        <mxCell id="zkfFHV4jXpPFQw0GAbJ--6" value="Piece" style="swimlane;fontStyle=0;align=center;verticalAlign=top;childLayout=stackLayout;horizontal=1;startSize=26;horizontalStack=0;resizeParent=1;resizeLast=0;collapsible=1;marginBottom=0;rounded=0;shadow=0;strokeWidth=1;labelBackgroundColor=none;fillColor=#A8DADC;strokeColor=#006658;fontColor=#1D3557;sketch=1;curveFitting=1;jiggle=2;" parent="WIyWlLk6GJQsqaUBKTNV-1" vertex="1" collapsed="1">
          <mxGeometry x="750" y="-670" width="160" height="26" as="geometry">
            <mxRectangle x="750" y="-670" width="190" height="268" as="alternateBounds" />
          </mxGeometry>
        </mxCell>
        <mxCell id="30" value="-color: Color" style="text;align=left;verticalAlign=top;spacingLeft=4;spacingRight=4;overflow=hidden;rotatable=0;points=[[0,0.5],[1,0.5]];portConstraint=eastwest;rounded=0;shadow=0;html=0;labelBackgroundColor=none;fontColor=#1D3557;sketch=1;curveFitting=1;jiggle=2;" parent="zkfFHV4jXpPFQw0GAbJ--6" vertex="1">
          <mxGeometry y="26" width="190" height="26" as="geometry" />
        </mxCell>
        <mxCell id="NqPf7y32PGqAoRuXFsSh-2" value="-simbology: String[]" style="text;align=left;verticalAlign=top;spacingLeft=4;spacingRight=4;overflow=hidden;rotatable=0;points=[[0,0.5],[1,0.5]];portConstraint=eastwest;rounded=0;shadow=0;html=0;labelBackgroundColor=none;fontColor=#1D3557;sketch=1;curveFitting=1;jiggle=2;" parent="zkfFHV4jXpPFQw0GAbJ--6" vertex="1">
          <mxGeometry y="52" width="190" height="26" as="geometry" />
        </mxCell>
        <mxCell id="qDr4SndlKKc7MKBFsgg5-56" value="-statusboard: Board" style="text;align=left;verticalAlign=top;spacingLeft=4;spacingRight=4;overflow=hidden;rotatable=0;points=[[0,0.5],[1,0.5]];portConstraint=eastwest;rounded=0;shadow=0;html=0;labelBackgroundColor=none;fontColor=#1D3557;sketch=1;curveFitting=1;jiggle=2;" parent="zkfFHV4jXpPFQw0GAbJ--6" vertex="1">
          <mxGeometry y="78" width="190" height="26" as="geometry" />
        </mxCell>
        <mxCell id="qDr4SndlKKc7MKBFsgg5-57" value="-position: Position" style="text;align=left;verticalAlign=top;spacingLeft=4;spacingRight=4;overflow=hidden;rotatable=0;points=[[0,0.5],[1,0.5]];portConstraint=eastwest;rounded=0;shadow=0;html=0;labelBackgroundColor=none;fontColor=#1D3557;sketch=1;curveFitting=1;jiggle=2;" parent="zkfFHV4jXpPFQw0GAbJ--6" vertex="1">
          <mxGeometry y="104" width="190" height="26" as="geometry" />
        </mxCell>
        <mxCell id="qDr4SndlKKc7MKBFsgg5-58" value="-vectors: ArrayList&lt;Vector&gt;" style="text;align=left;verticalAlign=top;spacingLeft=4;spacingRight=4;overflow=hidden;rotatable=0;points=[[0,0.5],[1,0.5]];portConstraint=eastwest;rounded=0;shadow=0;html=0;labelBackgroundColor=none;fontColor=#1D3557;sketch=1;curveFitting=1;jiggle=2;" parent="zkfFHV4jXpPFQw0GAbJ--6" vertex="1">
          <mxGeometry y="130" width="190" height="26" as="geometry" />
        </mxCell>
        <mxCell id="zkfFHV4jXpPFQw0GAbJ--9" value="" style="line;html=1;strokeWidth=1;align=left;verticalAlign=middle;spacingTop=-1;spacingLeft=3;spacingRight=3;rotatable=0;labelPosition=right;points=[];portConstraint=eastwest;labelBackgroundColor=none;fillColor=#A8DADC;strokeColor=#457B9D;fontColor=#1D3557;sketch=1;curveFitting=1;jiggle=2;" parent="zkfFHV4jXpPFQw0GAbJ--6" vertex="1">
          <mxGeometry y="156" width="190" height="8" as="geometry" />
        </mxCell>
        <mxCell id="epCRdVDOBYEAEhAt-mdH-18" value="-setInitialPosition()" style="text;align=left;verticalAlign=top;spacingLeft=4;spacingRight=4;overflow=hidden;rotatable=0;points=[[0,0.5],[1,0.5]];portConstraint=eastwest;rounded=0;shadow=0;html=0;labelBackgroundColor=none;fontColor=#1D3557;sketch=1;curveFitting=1;jiggle=2;" parent="zkfFHV4jXpPFQw0GAbJ--6" vertex="1">
          <mxGeometry y="164" width="190" height="26" as="geometry" />
        </mxCell>
        <mxCell id="qDr4SndlKKc7MKBFsgg5-60" value="-setPosition()" style="text;align=left;verticalAlign=top;spacingLeft=4;spacingRight=4;overflow=hidden;rotatable=0;points=[[0,0.5],[1,0.5]];portConstraint=eastwest;rounded=0;shadow=0;html=0;labelBackgroundColor=none;fontColor=#1D3557;sketch=1;curveFitting=1;jiggle=2;" parent="zkfFHV4jXpPFQw0GAbJ--6" vertex="1">
          <mxGeometry y="190" width="190" height="26" as="geometry" />
        </mxCell>
        <mxCell id="31" value="-getMoves(): ArrayList&lt;Position&gt;" style="text;align=left;verticalAlign=top;spacingLeft=4;spacingRight=4;overflow=hidden;rotatable=0;points=[[0,0.5],[1,0.5]];portConstraint=eastwest;rounded=0;shadow=0;html=0;labelBackgroundColor=none;fontColor=#1D3557;sketch=1;curveFitting=1;jiggle=2;" parent="zkfFHV4jXpPFQw0GAbJ--6" vertex="1">
          <mxGeometry y="216" width="190" height="26" as="geometry" />
        </mxCell>
        <mxCell id="qDr4SndlKKc7MKBFsgg5-61" value="-toString(): String" style="text;align=left;verticalAlign=top;spacingLeft=4;spacingRight=4;overflow=hidden;rotatable=0;points=[[0,0.5],[1,0.5]];portConstraint=eastwest;rounded=0;shadow=0;html=0;labelBackgroundColor=none;fontColor=#1D3557;sketch=1;curveFitting=1;jiggle=2;" parent="zkfFHV4jXpPFQw0GAbJ--6" vertex="1">
          <mxGeometry y="242" width="190" height="26" as="geometry" />
        </mxCell>
        <mxCell id="zkfFHV4jXpPFQw0GAbJ--13" value="Square" style="swimlane;fontStyle=0;align=center;verticalAlign=top;childLayout=stackLayout;horizontal=1;startSize=26;horizontalStack=0;resizeParent=1;resizeLast=0;collapsible=1;marginBottom=0;rounded=0;shadow=0;strokeWidth=1;labelBackgroundColor=none;fillColor=#A8DADC;strokeColor=#006658;fontColor=#1D3557;sketch=1;curveFitting=1;jiggle=2;" parent="WIyWlLk6GJQsqaUBKTNV-1" vertex="1" collapsed="1">
          <mxGeometry x="751.88" y="-760" width="170" height="26" as="geometry">
            <mxRectangle x="751.88" y="-760" width="230" height="198" as="alternateBounds" />
          </mxGeometry>
        </mxCell>
        <mxCell id="epCRdVDOBYEAEhAt-mdH-3" value="&amp;nbsp;-Position" style="text;html=1;align=left;verticalAlign=middle;whiteSpace=wrap;rounded=0;labelBackgroundColor=none;fontColor=#1D3557;sketch=1;curveFitting=1;jiggle=2;" parent="zkfFHV4jXpPFQw0GAbJ--13" vertex="1">
          <mxGeometry y="26" width="230" height="30" as="geometry" />
        </mxCell>
        <mxCell id="epCRdVDOBYEAEhAt-mdH-4" value="&amp;nbsp;-Piece" style="text;html=1;align=left;verticalAlign=middle;whiteSpace=wrap;rounded=0;labelBackgroundColor=none;fontColor=#1D3557;sketch=1;curveFitting=1;jiggle=2;" parent="zkfFHV4jXpPFQw0GAbJ--13" vertex="1">
          <mxGeometry y="56" width="230" height="30" as="geometry" />
        </mxCell>
        <mxCell id="zkfFHV4jXpPFQw0GAbJ--15" value="" style="line;html=1;strokeWidth=1;align=left;verticalAlign=middle;spacingTop=-1;spacingLeft=3;spacingRight=3;rotatable=0;labelPosition=right;points=[];portConstraint=eastwest;labelBackgroundColor=none;fillColor=#A8DADC;strokeColor=#457B9D;fontColor=#1D3557;sketch=1;curveFitting=1;jiggle=2;" parent="zkfFHV4jXpPFQw0GAbJ--13" vertex="1">
          <mxGeometry y="86" width="230" height="8" as="geometry" />
        </mxCell>
        <mxCell id="NqPf7y32PGqAoRuXFsSh-16" value="-removePiece(): Piece" style="text;align=left;verticalAlign=top;spacingLeft=4;spacingRight=4;overflow=hidden;rotatable=0;points=[[0,0.5],[1,0.5]];portConstraint=eastwest;rounded=0;shadow=0;html=0;labelBackgroundColor=none;fontColor=#1D3557;sketch=1;curveFitting=1;jiggle=2;" parent="zkfFHV4jXpPFQw0GAbJ--13" vertex="1">
          <mxGeometry y="94" width="230" height="26" as="geometry" />
        </mxCell>
        <mxCell id="qDr4SndlKKc7MKBFsgg5-109" value="-colorPieceOccuped(): Color" style="text;align=left;verticalAlign=top;spacingLeft=4;spacingRight=4;overflow=hidden;rotatable=0;points=[[0,0.5],[1,0.5]];portConstraint=eastwest;rounded=0;shadow=0;html=0;labelBackgroundColor=none;fontColor=#1D3557;sketch=1;curveFitting=1;jiggle=2;" parent="zkfFHV4jXpPFQw0GAbJ--13" vertex="1">
          <mxGeometry y="120" width="230" height="26" as="geometry" />
        </mxCell>
        <mxCell id="qDr4SndlKKc7MKBFsgg5-110" value="-getMovesOfPiece(): ArrayList&lt;Position&gt;" style="text;align=left;verticalAlign=top;spacingLeft=4;spacingRight=4;overflow=hidden;rotatable=0;points=[[0,0.5],[1,0.5]];portConstraint=eastwest;rounded=0;shadow=0;html=0;labelBackgroundColor=none;fontColor=#1D3557;sketch=1;curveFitting=1;jiggle=2;" parent="zkfFHV4jXpPFQw0GAbJ--13" vertex="1">
          <mxGeometry y="146" width="230" height="26" as="geometry" />
        </mxCell>
        <mxCell id="29" value="-toString()" style="text;align=left;verticalAlign=top;spacingLeft=4;spacingRight=4;overflow=hidden;rotatable=0;points=[[0,0.5],[1,0.5]];portConstraint=eastwest;rounded=0;shadow=0;html=0;labelBackgroundColor=none;fontColor=#1D3557;sketch=1;curveFitting=1;jiggle=2;" parent="zkfFHV4jXpPFQw0GAbJ--13" vertex="1">
          <mxGeometry y="172" width="230" height="26" as="geometry" />
        </mxCell>
        <mxCell id="zkfFHV4jXpPFQw0GAbJ--17" value="Board" style="swimlane;fontStyle=0;align=center;verticalAlign=top;childLayout=stackLayout;horizontal=1;startSize=26;horizontalStack=0;resizeParent=1;resizeLast=0;collapsible=1;marginBottom=0;rounded=0;shadow=0;strokeWidth=1;labelBackgroundColor=none;fillColor=#A8DADC;strokeColor=#006658;fontColor=#1D3557;sketch=1;curveFitting=1;jiggle=2;" parent="WIyWlLk6GJQsqaUBKTNV-1" vertex="1" collapsed="1">
          <mxGeometry x="756.88" y="-860" width="160" height="26" as="geometry">
            <mxRectangle x="555" y="-820" width="195" height="280" as="alternateBounds" />
          </mxGeometry>
        </mxCell>
        <mxCell id="zkfFHV4jXpPFQw0GAbJ--18" value="-squares: ArrayList&lt;Square&gt;" style="text;align=left;verticalAlign=top;spacingLeft=4;spacingRight=4;overflow=hidden;rotatable=0;points=[[0,0.5],[1,0.5]];portConstraint=eastwest;labelBackgroundColor=none;fontColor=#1D3557;sketch=1;curveFitting=1;jiggle=2;" parent="zkfFHV4jXpPFQw0GAbJ--17" vertex="1">
          <mxGeometry y="26" width="195" height="26" as="geometry" />
        </mxCell>
        <mxCell id="zkfFHV4jXpPFQw0GAbJ--23" value="" style="line;html=1;strokeWidth=1;align=left;verticalAlign=middle;spacingTop=-1;spacingLeft=3;spacingRight=3;rotatable=0;labelPosition=right;points=[];portConstraint=eastwest;labelBackgroundColor=none;fillColor=#A8DADC;strokeColor=#457B9D;fontColor=#1D3557;sketch=1;curveFitting=1;jiggle=2;" parent="zkfFHV4jXpPFQw0GAbJ--17" vertex="1">
          <mxGeometry y="52" width="195" height="8" as="geometry" />
        </mxCell>
        <mxCell id="qDr4SndlKKc7MKBFsgg5-113" value="+whoIsHere(): Color" style="text;align=left;verticalAlign=top;spacingLeft=4;spacingRight=4;overflow=hidden;rotatable=0;points=[[0,0.5],[1,0.5]];portConstraint=eastwest;rounded=0;shadow=0;html=0;labelBackgroundColor=none;fontColor=#1D3557;sketch=1;curveFitting=1;jiggle=2;" parent="zkfFHV4jXpPFQw0GAbJ--17" vertex="1">
          <mxGeometry y="60" width="195" height="26" as="geometry" />
        </mxCell>
        <mxCell id="qDr4SndlKKc7MKBFsgg5-114" value="+hasPosition(): Boolean" style="text;align=left;verticalAlign=top;spacingLeft=4;spacingRight=4;overflow=hidden;rotatable=0;points=[[0,0.5],[1,0.5]];portConstraint=eastwest;rounded=0;shadow=0;html=0;labelBackgroundColor=none;fontColor=#1D3557;sketch=1;curveFitting=1;jiggle=2;" parent="zkfFHV4jXpPFQw0GAbJ--17" vertex="1">
          <mxGeometry y="86" width="195" height="26" as="geometry" />
        </mxCell>
        <mxCell id="18" value="+putPiece()" style="text;align=left;verticalAlign=top;spacingLeft=4;spacingRight=4;overflow=hidden;rotatable=0;points=[[0,0.5],[1,0.5]];portConstraint=eastwest;rounded=0;shadow=0;html=0;labelBackgroundColor=none;fontColor=#1D3557;sketch=1;curveFitting=1;jiggle=2;" parent="zkfFHV4jXpPFQw0GAbJ--17" vertex="1">
          <mxGeometry y="112" width="195" height="26" as="geometry" />
        </mxCell>
        <mxCell id="NqPf7y32PGqAoRuXFsSh-12" value="+getMovesOfPiece(Position)" style="text;align=left;verticalAlign=top;spacingLeft=4;spacingRight=4;overflow=hidden;rotatable=0;points=[[0,0.5],[1,0.5]];portConstraint=eastwest;rounded=0;shadow=0;html=0;labelBackgroundColor=none;fontColor=#1D3557;sketch=1;curveFitting=1;jiggle=2;" parent="zkfFHV4jXpPFQw0GAbJ--17" vertex="1">
          <mxGeometry y="138" width="195" height="26" as="geometry" />
        </mxCell>
        <mxCell id="NqPf7y32PGqAoRuXFsSh-14" value="+movePiece(Position, Position)" style="text;align=left;verticalAlign=top;spacingLeft=4;spacingRight=4;overflow=hidden;rotatable=0;points=[[0,0.5],[1,0.5]];portConstraint=eastwest;rounded=0;shadow=0;html=0;labelBackgroundColor=none;fontColor=#1D3557;sketch=1;curveFitting=1;jiggle=2;" parent="zkfFHV4jXpPFQw0GAbJ--17" vertex="1">
          <mxGeometry y="164" width="195" height="26" as="geometry" />
        </mxCell>
        <mxCell id="17" value="+printBoard()" style="text;align=left;verticalAlign=top;spacingLeft=4;spacingRight=4;overflow=hidden;rotatable=0;points=[[0,0.5],[1,0.5]];portConstraint=eastwest;rounded=0;shadow=0;html=0;labelBackgroundColor=none;fontColor=#1D3557;sketch=1;curveFitting=1;jiggle=2;" parent="zkfFHV4jXpPFQw0GAbJ--17" vertex="1">
          <mxGeometry y="190" width="195" height="26" as="geometry" />
        </mxCell>
        <mxCell id="NqPf7y32PGqAoRuXFsSh-4" value="+getPiece()" style="text;align=left;verticalAlign=top;spacingLeft=4;spacingRight=4;overflow=hidden;rotatable=0;points=[[0,0.5],[1,0.5]];portConstraint=eastwest;rounded=0;shadow=0;html=0;labelBackgroundColor=none;fontColor=#1D3557;sketch=1;curveFitting=1;jiggle=2;" parent="zkfFHV4jXpPFQw0GAbJ--17" vertex="1">
          <mxGeometry y="216" width="195" height="26" as="geometry" />
        </mxCell>
        <mxCell id="NqPf7y32PGqAoRuXFsSh-5" value="+getSquare()" style="text;align=left;verticalAlign=top;spacingLeft=4;spacingRight=4;overflow=hidden;rotatable=0;points=[[0,0.5],[1,0.5]];portConstraint=eastwest;rounded=0;shadow=0;html=0;labelBackgroundColor=none;fontColor=#1D3557;sketch=1;curveFitting=1;jiggle=2;" parent="zkfFHV4jXpPFQw0GAbJ--17" vertex="1">
          <mxGeometry y="242" width="195" height="26" as="geometry" />
        </mxCell>
        <mxCell id="epCRdVDOBYEAEhAt-mdH-19" value="" style="endArrow=diamondThin;endFill=1;endSize=24;html=1;rounded=0;exitX=0.5;exitY=1;exitDx=0;exitDy=0;entryX=0.5;entryY=0;entryDx=0;entryDy=0;labelBackgroundColor=none;strokeColor=#006658;fontColor=default;sketch=1;curveFitting=1;jiggle=2;" parent="WIyWlLk6GJQsqaUBKTNV-1" source="zkfFHV4jXpPFQw0GAbJ--17" target="zkfFHV4jXpPFQw0GAbJ--13" edge="1">
          <mxGeometry width="160" relative="1" as="geometry">
            <mxPoint x="690" y="-260" as="sourcePoint" />
            <mxPoint x="760" y="-190" as="targetPoint" />
          </mxGeometry>
        </mxCell>
        <mxCell id="epCRdVDOBYEAEhAt-mdH-21" value="" style="endArrow=block;endSize=16;endFill=0;html=1;rounded=0;exitX=0.5;exitY=0;exitDx=0;exitDy=0;entryX=0.5;entryY=1;entryDx=0;entryDy=0;labelBackgroundColor=none;strokeColor=#006658;fontColor=default;sketch=1;curveFitting=1;jiggle=2;" parent="WIyWlLk6GJQsqaUBKTNV-1" source="epCRdVDOBYEAEhAt-mdH-30" target="zkfFHV4jXpPFQw0GAbJ--6" edge="1">
          <mxGeometry width="160" relative="1" as="geometry">
            <mxPoint x="580" y="-120" as="sourcePoint" />
            <mxPoint x="750" y="-150" as="targetPoint" />
            <Array as="points">
              <mxPoint x="730" y="-510" />
              <mxPoint x="830" y="-510" />
            </Array>
          </mxGeometry>
        </mxCell>
        <mxCell id="epCRdVDOBYEAEhAt-mdH-22" value="Bishop" style="swimlane;fontStyle=0;align=center;verticalAlign=top;childLayout=stackLayout;horizontal=1;startSize=26;horizontalStack=0;resizeParent=1;resizeLast=0;collapsible=1;marginBottom=0;rounded=0;shadow=0;strokeWidth=1;labelBackgroundColor=none;fillColor=#A8DADC;strokeColor=#006658;fontColor=#1D3557;sketch=1;curveFitting=1;jiggle=2;" parent="WIyWlLk6GJQsqaUBKTNV-1" vertex="1">
          <mxGeometry x="450" y="-420" width="160" height="80" as="geometry">
            <mxRectangle x="130" y="380" width="160" height="26" as="alternateBounds" />
          </mxGeometry>
        </mxCell>
        <mxCell id="epCRdVDOBYEAEhAt-mdH-26" value="" style="line;html=1;strokeWidth=1;align=left;verticalAlign=middle;spacingTop=-1;spacingLeft=3;spacingRight=3;rotatable=0;labelPosition=right;points=[];portConstraint=eastwest;labelBackgroundColor=none;fillColor=#A8DADC;strokeColor=#006658;fontColor=#1D3557;sketch=1;curveFitting=1;jiggle=2;" parent="epCRdVDOBYEAEhAt-mdH-22" vertex="1">
          <mxGeometry y="26" width="160" height="44" as="geometry" />
        </mxCell>
        <mxCell id="epCRdVDOBYEAEhAt-mdH-28" value="Pawn" style="swimlane;fontStyle=0;align=center;verticalAlign=top;childLayout=stackLayout;horizontal=1;startSize=26;horizontalStack=0;resizeParent=1;resizeLast=0;collapsible=1;marginBottom=0;rounded=0;shadow=0;strokeWidth=1;labelBackgroundColor=none;fillColor=#A8DADC;strokeColor=#006658;fontColor=#1D3557;sketch=1;curveFitting=1;jiggle=2;" parent="WIyWlLk6GJQsqaUBKTNV-1" vertex="1">
          <mxGeometry x="250" y="-420" width="160" height="112" as="geometry">
            <mxRectangle x="130" y="380" width="160" height="26" as="alternateBounds" />
          </mxGeometry>
        </mxCell>
        <mxCell id="epCRdVDOBYEAEhAt-mdH-29" value="" style="line;html=1;strokeWidth=1;align=left;verticalAlign=middle;spacingTop=-1;spacingLeft=3;spacingRight=3;rotatable=0;labelPosition=right;points=[];portConstraint=eastwest;labelBackgroundColor=none;fillColor=#A8DADC;strokeColor=#006658;fontColor=#1D3557;sketch=1;curveFitting=1;jiggle=2;" parent="epCRdVDOBYEAEhAt-mdH-28" vertex="1">
          <mxGeometry y="26" width="160" height="34" as="geometry" />
        </mxCell>
        <mxCell id="RRcPQt79kSkmYTHiTDWC-56" value="+getMoves(): ArrayList&lt;Position&gt;" style="text;align=left;verticalAlign=top;spacingLeft=4;spacingRight=4;overflow=hidden;rotatable=0;points=[[0,0.5],[1,0.5]];portConstraint=eastwest;rounded=0;shadow=0;html=0;labelBackgroundColor=none;fontColor=#1D3557;sketch=1;curveFitting=1;jiggle=2;strokeColor=#006658;" vertex="1" parent="epCRdVDOBYEAEhAt-mdH-28">
          <mxGeometry y="60" width="160" height="26" as="geometry" />
        </mxCell>
        <mxCell id="RRcPQt79kSkmYTHiTDWC-57" value="+promove(String): Piece" style="text;align=left;verticalAlign=top;spacingLeft=4;spacingRight=4;overflow=hidden;rotatable=0;points=[[0,0.5],[1,0.5]];portConstraint=eastwest;rounded=0;shadow=0;html=0;labelBackgroundColor=none;fontColor=#1D3557;sketch=1;curveFitting=1;jiggle=2;strokeColor=#006658;" vertex="1" parent="epCRdVDOBYEAEhAt-mdH-28">
          <mxGeometry y="86" width="160" height="26" as="geometry" />
        </mxCell>
        <mxCell id="epCRdVDOBYEAEhAt-mdH-30" value="Rook" style="swimlane;fontStyle=0;align=center;verticalAlign=top;childLayout=stackLayout;horizontal=1;startSize=26;horizontalStack=0;resizeParent=1;resizeLast=0;collapsible=1;marginBottom=0;rounded=0;shadow=0;strokeWidth=1;labelBackgroundColor=none;fillColor=#A8DADC;strokeColor=#006658;fontColor=#1D3557;sketch=1;curveFitting=1;jiggle=2;" parent="WIyWlLk6GJQsqaUBKTNV-1" vertex="1">
          <mxGeometry x="650" y="-420" width="160" height="80" as="geometry">
            <mxRectangle x="130" y="380" width="160" height="26" as="alternateBounds" />
          </mxGeometry>
        </mxCell>
        <mxCell id="epCRdVDOBYEAEhAt-mdH-31" value="" style="line;html=1;strokeWidth=1;align=left;verticalAlign=middle;spacingTop=-1;spacingLeft=3;spacingRight=3;rotatable=0;labelPosition=right;points=[];portConstraint=eastwest;labelBackgroundColor=none;fillColor=#A8DADC;strokeColor=#006658;fontColor=#1D3557;sketch=1;curveFitting=1;jiggle=2;" parent="epCRdVDOBYEAEhAt-mdH-30" vertex="1">
          <mxGeometry y="26" width="160" height="44" as="geometry" />
        </mxCell>
        <mxCell id="epCRdVDOBYEAEhAt-mdH-32" value="Knight" style="swimlane;fontStyle=0;align=center;verticalAlign=top;childLayout=stackLayout;horizontal=1;startSize=26;horizontalStack=0;resizeParent=1;resizeLast=0;collapsible=1;marginBottom=0;rounded=0;shadow=0;strokeWidth=1;labelBackgroundColor=none;fillColor=#A8DADC;strokeColor=#006658;fontColor=#1D3557;sketch=1;curveFitting=1;jiggle=2;" parent="WIyWlLk6GJQsqaUBKTNV-1" vertex="1">
          <mxGeometry x="850" y="-420" width="160" height="80" as="geometry">
            <mxRectangle x="130" y="380" width="160" height="26" as="alternateBounds" />
          </mxGeometry>
        </mxCell>
        <mxCell id="epCRdVDOBYEAEhAt-mdH-33" value="" style="line;html=1;strokeWidth=1;align=left;verticalAlign=middle;spacingTop=-1;spacingLeft=3;spacingRight=3;rotatable=0;labelPosition=right;points=[];portConstraint=eastwest;labelBackgroundColor=none;fillColor=#A8DADC;strokeColor=#006658;fontColor=#1D3557;sketch=1;curveFitting=1;jiggle=2;" parent="epCRdVDOBYEAEhAt-mdH-32" vertex="1">
          <mxGeometry y="26" width="160" height="44" as="geometry" />
        </mxCell>
        <mxCell id="epCRdVDOBYEAEhAt-mdH-36" value="Queen" style="swimlane;fontStyle=0;align=center;verticalAlign=top;childLayout=stackLayout;horizontal=1;startSize=26;horizontalStack=0;resizeParent=1;resizeLast=0;collapsible=1;marginBottom=0;rounded=0;shadow=0;strokeWidth=1;labelBackgroundColor=none;fillColor=#A8DADC;strokeColor=#006658;fontColor=#1D3557;sketch=1;curveFitting=1;jiggle=2;" parent="WIyWlLk6GJQsqaUBKTNV-1" vertex="1">
          <mxGeometry x="1050" y="-420" width="160" height="80" as="geometry">
            <mxRectangle x="130" y="380" width="160" height="26" as="alternateBounds" />
          </mxGeometry>
        </mxCell>
        <mxCell id="epCRdVDOBYEAEhAt-mdH-37" value="" style="line;html=1;strokeWidth=1;align=left;verticalAlign=middle;spacingTop=-1;spacingLeft=3;spacingRight=3;rotatable=0;labelPosition=right;points=[];portConstraint=eastwest;labelBackgroundColor=none;fillColor=#A8DADC;strokeColor=#006658;fontColor=#1D3557;sketch=1;curveFitting=1;jiggle=2;" parent="epCRdVDOBYEAEhAt-mdH-36" vertex="1">
          <mxGeometry y="26" width="160" height="44" as="geometry" />
        </mxCell>
        <mxCell id="epCRdVDOBYEAEhAt-mdH-38" value="King" style="swimlane;fontStyle=0;align=center;verticalAlign=top;childLayout=stackLayout;horizontal=1;startSize=26;horizontalStack=0;resizeParent=1;resizeLast=0;collapsible=1;marginBottom=0;rounded=0;shadow=0;strokeWidth=1;labelBackgroundColor=none;fillColor=#A8DADC;strokeColor=#006658;fontColor=#1D3557;sketch=1;curveFitting=1;jiggle=2;" parent="WIyWlLk6GJQsqaUBKTNV-1" vertex="1">
          <mxGeometry x="1250" y="-420" width="160" height="80" as="geometry">
            <mxRectangle x="130" y="380" width="160" height="26" as="alternateBounds" />
          </mxGeometry>
        </mxCell>
        <mxCell id="epCRdVDOBYEAEhAt-mdH-39" value="" style="line;html=1;strokeWidth=1;align=left;verticalAlign=middle;spacingTop=-1;spacingLeft=3;spacingRight=3;rotatable=0;labelPosition=right;points=[];portConstraint=eastwest;labelBackgroundColor=none;fillColor=#A8DADC;strokeColor=#006658;fontColor=#1D3557;sketch=1;curveFitting=1;jiggle=2;" parent="epCRdVDOBYEAEhAt-mdH-38" vertex="1">
          <mxGeometry y="26" width="160" height="44" as="geometry" />
        </mxCell>
        <mxCell id="epCRdVDOBYEAEhAt-mdH-43" value="" style="endArrow=block;endSize=16;endFill=0;html=1;rounded=0;entryX=0.5;entryY=1;entryDx=0;entryDy=0;exitX=0.5;exitY=0;exitDx=0;exitDy=0;labelBackgroundColor=none;strokeColor=#006658;fontColor=default;sketch=1;curveFitting=1;jiggle=2;" parent="WIyWlLk6GJQsqaUBKTNV-1" source="epCRdVDOBYEAEhAt-mdH-28" target="zkfFHV4jXpPFQw0GAbJ--6" edge="1">
          <mxGeometry width="160" relative="1" as="geometry">
            <mxPoint x="840" y="-80" as="sourcePoint" />
            <mxPoint x="810" y="-180" as="targetPoint" />
            <Array as="points">
              <mxPoint x="330" y="-520" />
              <mxPoint x="830" y="-510" />
            </Array>
          </mxGeometry>
        </mxCell>
        <mxCell id="epCRdVDOBYEAEhAt-mdH-44" value="" style="endArrow=block;endSize=16;endFill=0;html=1;rounded=0;exitX=0.491;exitY=0.003;exitDx=0;exitDy=0;exitPerimeter=0;entryX=0.5;entryY=1;entryDx=0;entryDy=0;labelBackgroundColor=none;strokeColor=#006658;fontColor=default;sketch=1;curveFitting=1;jiggle=2;" parent="WIyWlLk6GJQsqaUBKTNV-1" source="epCRdVDOBYEAEhAt-mdH-22" target="zkfFHV4jXpPFQw0GAbJ--6" edge="1">
          <mxGeometry width="160" relative="1" as="geometry">
            <mxPoint x="500" y="-80" as="sourcePoint" />
            <mxPoint x="780" y="-160" as="targetPoint" />
            <Array as="points">
              <mxPoint x="529" y="-510" />
              <mxPoint x="830" y="-510" />
            </Array>
          </mxGeometry>
        </mxCell>
        <mxCell id="epCRdVDOBYEAEhAt-mdH-45" value="" style="endArrow=block;endSize=16;endFill=0;html=1;rounded=0;exitX=0.5;exitY=0;exitDx=0;exitDy=0;entryX=0.5;entryY=1;entryDx=0;entryDy=0;labelBackgroundColor=none;strokeColor=#006658;fontColor=default;sketch=1;curveFitting=1;jiggle=2;" parent="WIyWlLk6GJQsqaUBKTNV-1" source="epCRdVDOBYEAEhAt-mdH-32" target="zkfFHV4jXpPFQw0GAbJ--6" edge="1">
          <mxGeometry width="160" relative="1" as="geometry">
            <mxPoint x="940" y="-80" as="sourcePoint" />
            <mxPoint x="570" y="-190" as="targetPoint" />
            <Array as="points">
              <mxPoint x="930" y="-510" />
              <mxPoint x="830" y="-510" />
            </Array>
          </mxGeometry>
        </mxCell>
        <mxCell id="epCRdVDOBYEAEhAt-mdH-46" value="" style="endArrow=block;endSize=16;endFill=0;html=1;rounded=0;exitX=0.5;exitY=0;exitDx=0;exitDy=0;entryX=0.5;entryY=1;entryDx=0;entryDy=0;labelBackgroundColor=none;strokeColor=#006658;fontColor=default;sketch=1;curveFitting=1;jiggle=2;" parent="WIyWlLk6GJQsqaUBKTNV-1" source="epCRdVDOBYEAEhAt-mdH-36" target="zkfFHV4jXpPFQw0GAbJ--6" edge="1">
          <mxGeometry width="160" relative="1" as="geometry">
            <mxPoint x="1070" y="-60" as="sourcePoint" />
            <mxPoint x="840" y="-170" as="targetPoint" />
            <Array as="points">
              <mxPoint x="1140" y="-510" />
              <mxPoint x="830" y="-510" />
            </Array>
          </mxGeometry>
        </mxCell>
        <mxCell id="epCRdVDOBYEAEhAt-mdH-47" value="" style="endArrow=block;endSize=16;endFill=0;html=1;rounded=0;exitX=0.5;exitY=0;exitDx=0;exitDy=0;entryX=0.5;entryY=1;entryDx=0;entryDy=0;labelBackgroundColor=none;strokeColor=#006658;fontColor=default;sketch=1;curveFitting=1;jiggle=2;" parent="WIyWlLk6GJQsqaUBKTNV-1" source="epCRdVDOBYEAEhAt-mdH-38" target="zkfFHV4jXpPFQw0GAbJ--6" edge="1">
          <mxGeometry width="160" relative="1" as="geometry">
            <mxPoint x="1260" y="-80" as="sourcePoint" />
            <mxPoint x="840" y="-180" as="targetPoint" />
            <Array as="points">
              <mxPoint x="1330" y="-510" />
              <mxPoint x="830" y="-510" />
            </Array>
          </mxGeometry>
        </mxCell>
        <mxCell id="epCRdVDOBYEAEhAt-mdH-59" value="" style="endArrow=diamondThin;endFill=1;endSize=24;html=1;rounded=0;entryX=0.003;entryY=0.348;entryDx=0;entryDy=0;entryPerimeter=0;exitX=1;exitY=0.504;exitDx=0;exitDy=0;exitPerimeter=0;labelBackgroundColor=none;strokeColor=#006658;fontColor=default;sketch=1;curveFitting=1;jiggle=2;" parent="WIyWlLk6GJQsqaUBKTNV-1" source="zkfFHV4jXpPFQw0GAbJ--9" target="epCRdVDOBYEAEhAt-mdH-62" edge="1">
          <mxGeometry width="160" relative="1" as="geometry">
            <mxPoint x="920" y="-330" as="sourcePoint" />
            <mxPoint x="970" y="-580" as="targetPoint" />
          </mxGeometry>
        </mxCell>
        <mxCell id="epCRdVDOBYEAEhAt-mdH-60" value="Vector" style="swimlane;fontStyle=0;align=center;verticalAlign=top;childLayout=stackLayout;horizontal=1;startSize=26;horizontalStack=0;resizeParent=1;resizeLast=0;collapsible=1;marginBottom=0;rounded=0;shadow=0;strokeWidth=1;labelBackgroundColor=none;fillColor=#A8DADC;strokeColor=#006658;fontColor=#1D3557;sketch=1;curveFitting=1;jiggle=2;" parent="WIyWlLk6GJQsqaUBKTNV-1" vertex="1" collapsed="1">
          <mxGeometry x="1030" y="-670" width="170" height="26" as="geometry">
            <mxRectangle x="780" y="-480" width="160" height="174" as="alternateBounds" />
          </mxGeometry>
        </mxCell>
        <mxCell id="epCRdVDOBYEAEhAt-mdH-61" value="-pointX: int" style="text;align=left;verticalAlign=top;spacingLeft=4;spacingRight=4;overflow=hidden;rotatable=0;points=[[0,0.5],[1,0.5]];portConstraint=eastwest;labelBackgroundColor=none;fontColor=#1D3557;sketch=1;curveFitting=1;jiggle=2;" parent="epCRdVDOBYEAEhAt-mdH-60" vertex="1">
          <mxGeometry y="26" width="160" height="24" as="geometry" />
        </mxCell>
        <mxCell id="epCRdVDOBYEAEhAt-mdH-62" value="&amp;nbsp;-pointY: int&amp;nbsp;" style="text;html=1;align=left;verticalAlign=middle;whiteSpace=wrap;rounded=0;labelBackgroundColor=none;fontColor=#1D3557;sketch=1;curveFitting=1;jiggle=2;" parent="epCRdVDOBYEAEhAt-mdH-60" vertex="1">
          <mxGeometry y="50" width="160" height="30" as="geometry" />
        </mxCell>
        <mxCell id="epCRdVDOBYEAEhAt-mdH-63" value="&amp;nbsp;-magnitude: int" style="text;html=1;align=left;verticalAlign=middle;whiteSpace=wrap;rounded=0;labelBackgroundColor=none;fontColor=#1D3557;sketch=1;curveFitting=1;jiggle=2;" parent="epCRdVDOBYEAEhAt-mdH-60" vertex="1">
          <mxGeometry y="80" width="160" height="30" as="geometry" />
        </mxCell>
        <mxCell id="NqPf7y32PGqAoRuXFsSh-15" value="&amp;nbsp;-largeMove: Boolean" style="text;html=1;align=left;verticalAlign=middle;whiteSpace=wrap;rounded=0;labelBackgroundColor=none;fontColor=#1D3557;sketch=1;curveFitting=1;jiggle=2;" parent="epCRdVDOBYEAEhAt-mdH-60" vertex="1">
          <mxGeometry y="110" width="160" height="18" as="geometry" />
        </mxCell>
        <mxCell id="epCRdVDOBYEAEhAt-mdH-64" value="" style="line;html=1;strokeWidth=1;align=left;verticalAlign=middle;spacingTop=-1;spacingLeft=3;spacingRight=3;rotatable=0;labelPosition=right;points=[];portConstraint=eastwest;labelBackgroundColor=none;fillColor=#A8DADC;strokeColor=#457B9D;fontColor=#1D3557;sketch=1;curveFitting=1;jiggle=2;" parent="epCRdVDOBYEAEhAt-mdH-60" vertex="1">
          <mxGeometry y="128" width="160" height="8" as="geometry" />
        </mxCell>
        <mxCell id="NqPf7y32PGqAoRuXFsSh-0" value="+iterator: Iterator&amp;lt;Position&amp;gt;" style="text;strokeColor=none;fillColor=none;align=left;verticalAlign=top;spacingLeft=4;spacingRight=4;overflow=hidden;rotatable=0;points=[[0,0.5],[1,0.5]];portConstraint=eastwest;whiteSpace=wrap;html=1;labelBackgroundColor=none;fontColor=#1D3557;sketch=1;curveFitting=1;jiggle=2;" parent="epCRdVDOBYEAEhAt-mdH-60" vertex="1">
          <mxGeometry y="136" width="160" height="26" as="geometry" />
        </mxCell>
        <mxCell id="NqPf7y32PGqAoRuXFsSh-1" value="" style="endArrow=diamondThin;endFill=0;endSize=24;html=1;rounded=0;exitX=0.5;exitY=1;exitDx=0;exitDy=0;entryX=0.5;entryY=0;entryDx=0;entryDy=0;labelBackgroundColor=none;strokeColor=#006658;fontColor=default;sketch=1;curveFitting=1;jiggle=2;" parent="WIyWlLk6GJQsqaUBKTNV-1" source="zkfFHV4jXpPFQw0GAbJ--13" target="zkfFHV4jXpPFQw0GAbJ--6" edge="1">
          <mxGeometry width="160" relative="1" as="geometry">
            <mxPoint x="850" y="-480" as="sourcePoint" />
            <mxPoint x="1010" y="-480" as="targetPoint" />
          </mxGeometry>
        </mxCell>
        <mxCell id="0" value="EngineChess" style="swimlane;fontStyle=0;align=center;verticalAlign=top;childLayout=stackLayout;horizontal=1;startSize=26;horizontalStack=0;resizeParent=1;resizeLast=0;collapsible=1;marginBottom=0;rounded=0;shadow=0;strokeWidth=1;labelBackgroundColor=none;fillColor=#A8DADC;strokeColor=#006658;fontColor=#1D3557;sketch=1;curveFitting=1;jiggle=2;" parent="WIyWlLk6GJQsqaUBKTNV-1" vertex="1">
          <mxGeometry x="691.26" y="-1590" width="291.25" height="580" as="geometry">
            <mxRectangle x="756.88" y="-990" width="160" height="146" as="alternateBounds" />
          </mxGeometry>
        </mxCell>
        <mxCell id="1" value="-board: Board" style="text;align=left;verticalAlign=top;spacingLeft=4;spacingRight=4;overflow=hidden;rotatable=0;points=[[0,0.5],[1,0.5]];portConstraint=eastwest;labelBackgroundColor=none;fontColor=#1D3557;sketch=1;curveFitting=1;jiggle=2;strokeColor=#006658;" parent="0" vertex="1">
          <mxGeometry y="26" width="291.25" height="26" as="geometry" />
        </mxCell>
        <mxCell id="qDr4SndlKKc7MKBFsgg5-117" value="-playerTurn: Color" style="text;align=left;verticalAlign=top;spacingLeft=4;spacingRight=4;overflow=hidden;rotatable=0;points=[[0,0.5],[1,0.5]];portConstraint=eastwest;labelBackgroundColor=none;fontColor=#1D3557;sketch=1;curveFitting=1;jiggle=2;strokeColor=#006658;" parent="0" vertex="1">
          <mxGeometry y="52" width="291.25" height="26" as="geometry" />
        </mxCell>
        <mxCell id="RRcPQt79kSkmYTHiTDWC-61" value="-kingInCheck: boolean" style="text;align=left;verticalAlign=top;spacingLeft=4;spacingRight=4;overflow=hidden;rotatable=0;points=[[0,0.5],[1,0.5]];portConstraint=eastwest;labelBackgroundColor=none;fontColor=#1D3557;sketch=1;curveFitting=1;jiggle=2;strokeColor=#006658;" vertex="1" parent="0">
          <mxGeometry y="78" width="291.25" height="26" as="geometry" />
        </mxCell>
        <mxCell id="RRcPQt79kSkmYTHiTDWC-63" value="-pawnReadyToPromove: Piece" style="text;align=left;verticalAlign=top;spacingLeft=4;spacingRight=4;overflow=hidden;rotatable=0;points=[[0,0.5],[1,0.5]];portConstraint=eastwest;labelBackgroundColor=none;fontColor=#1D3557;sketch=1;curveFitting=1;jiggle=2;strokeColor=#006658;" vertex="1" parent="0">
          <mxGeometry y="104" width="291.25" height="26" as="geometry" />
        </mxCell>
        <mxCell id="RRcPQt79kSkmYTHiTDWC-62" value="-dangeSquares: ArrayList&lt;Position&gt;" style="text;align=left;verticalAlign=top;spacingLeft=4;spacingRight=4;overflow=hidden;rotatable=0;points=[[0,0.5],[1,0.5]];portConstraint=eastwest;rounded=0;shadow=0;html=0;labelBackgroundColor=none;fontColor=#1D3557;sketch=1;curveFitting=1;jiggle=2;strokeColor=#006658;" vertex="1" parent="0">
          <mxGeometry y="130" width="291.25" height="26" as="geometry" />
        </mxCell>
        <mxCell id="qDr4SndlKKc7MKBFsgg5-122" value="-currentMoves: ArrayList&lt;Position[]&gt;" style="text;align=left;verticalAlign=top;spacingLeft=4;spacingRight=4;overflow=hidden;rotatable=0;points=[[0,0.5],[1,0.5]];portConstraint=eastwest;rounded=0;shadow=0;html=0;labelBackgroundColor=none;fontColor=#1D3557;sketch=1;curveFitting=1;jiggle=2;strokeColor=#006658;" parent="0" vertex="1">
          <mxGeometry y="156" width="291.25" height="26" as="geometry" />
        </mxCell>
        <mxCell id="RRcPQt79kSkmYTHiTDWC-59" value="-lastMove: Position[]" style="text;align=left;verticalAlign=top;spacingLeft=4;spacingRight=4;overflow=hidden;rotatable=0;points=[[0,0.5],[1,0.5]];portConstraint=eastwest;rounded=0;shadow=0;html=0;labelBackgroundColor=none;fontColor=#1D3557;sketch=1;curveFitting=1;jiggle=2;strokeColor=#006658;" vertex="1" parent="0">
          <mxGeometry y="182" width="291.25" height="26" as="geometry" />
        </mxCell>
        <mxCell id="RRcPQt79kSkmYTHiTDWC-60" value="-enPassant: ArrayList&lt;Position[]&gt;" style="text;align=left;verticalAlign=top;spacingLeft=4;spacingRight=4;overflow=hidden;rotatable=0;points=[[0,0.5],[1,0.5]];portConstraint=eastwest;rounded=0;shadow=0;html=0;labelBackgroundColor=none;fontColor=#1D3557;sketch=1;curveFitting=1;jiggle=2;strokeColor=#006658;" vertex="1" parent="0">
          <mxGeometry y="208" width="291.25" height="26" as="geometry" />
        </mxCell>
        <mxCell id="RRcPQt79kSkmYTHiTDWC-64" value="-castle: ArrayList&lt;Position[]&gt;" style="text;align=left;verticalAlign=top;spacingLeft=4;spacingRight=4;overflow=hidden;rotatable=0;points=[[0,0.5],[1,0.5]];portConstraint=eastwest;rounded=0;shadow=0;html=0;labelBackgroundColor=none;fontColor=#1D3557;sketch=1;curveFitting=1;jiggle=2;strokeColor=#006658;" vertex="1" parent="0">
          <mxGeometry y="234" width="291.25" height="26" as="geometry" />
        </mxCell>
        <mxCell id="2" value="" style="line;html=1;strokeWidth=1;align=left;verticalAlign=middle;spacingTop=-1;spacingLeft=3;spacingRight=3;rotatable=0;labelPosition=right;points=[];portConstraint=eastwest;labelBackgroundColor=none;fillColor=#A8DADC;strokeColor=#006658;fontColor=#1D3557;sketch=1;curveFitting=1;jiggle=2;" parent="0" vertex="1">
          <mxGeometry y="260" width="291.25" height="8" as="geometry" />
        </mxCell>
        <mxCell id="RRcPQt79kSkmYTHiTDWC-65" value="+EngineChess(int, int, boolean)" style="text;align=left;verticalAlign=top;spacingLeft=4;spacingRight=4;overflow=hidden;rotatable=0;points=[[0,0.5],[1,0.5]];portConstraint=eastwest;rounded=0;shadow=0;html=0;labelBackgroundColor=none;fontColor=#1D3557;sketch=1;curveFitting=1;jiggle=2;strokeColor=#006658;" vertex="1" parent="0">
          <mxGeometry y="268" width="291.25" height="26" as="geometry" />
        </mxCell>
        <mxCell id="RRcPQt79kSkmYTHiTDWC-80" value="+printBoard()" style="text;align=left;verticalAlign=top;spacingLeft=4;spacingRight=4;overflow=hidden;rotatable=0;points=[[0,0.5],[1,0.5]];portConstraint=eastwest;rounded=0;shadow=0;html=0;labelBackgroundColor=none;fontColor=#1D3557;sketch=1;curveFitting=1;jiggle=2;strokeColor=#006658;" vertex="1" parent="0">
          <mxGeometry y="294" width="291.25" height="26" as="geometry" />
        </mxCell>
        <mxCell id="RRcPQt79kSkmYTHiTDWC-66" value="-boardSetup()" style="text;align=left;verticalAlign=top;spacingLeft=4;spacingRight=4;overflow=hidden;rotatable=0;points=[[0,0.5],[1,0.5]];portConstraint=eastwest;rounded=0;shadow=0;html=0;labelBackgroundColor=none;fontColor=#1D3557;sketch=1;curveFitting=1;jiggle=2;strokeColor=#006658;" vertex="1" parent="0">
          <mxGeometry y="320" width="291.25" height="26" as="geometry" />
        </mxCell>
        <mxCell id="RRcPQt79kSkmYTHiTDWC-67" value="-refreshCurrentMoves()" style="text;align=left;verticalAlign=top;spacingLeft=4;spacingRight=4;overflow=hidden;rotatable=0;points=[[0,0.5],[1,0.5]];portConstraint=eastwest;rounded=0;shadow=0;html=0;labelBackgroundColor=none;fontColor=#1D3557;sketch=1;curveFitting=1;jiggle=2;strokeColor=#006658;" vertex="1" parent="0">
          <mxGeometry y="346" width="291.25" height="26" as="geometry" />
        </mxCell>
        <mxCell id="RRcPQt79kSkmYTHiTDWC-73" value="-changeTurn()" style="text;align=left;verticalAlign=top;spacingLeft=4;spacingRight=4;overflow=hidden;rotatable=0;points=[[0,0.5],[1,0.5]];portConstraint=eastwest;rounded=0;shadow=0;html=0;labelBackgroundColor=none;fontColor=#1D3557;sketch=1;curveFitting=1;jiggle=2;strokeColor=#006658;" vertex="1" parent="0">
          <mxGeometry y="372" width="291.25" height="26" as="geometry" />
        </mxCell>
        <mxCell id="RRcPQt79kSkmYTHiTDWC-72" value="-isKingInCheck(): boolean " style="text;align=left;verticalAlign=top;spacingLeft=4;spacingRight=4;overflow=hidden;rotatable=0;points=[[0,0.5],[1,0.5]];portConstraint=eastwest;rounded=0;shadow=0;html=0;labelBackgroundColor=none;fontColor=#1D3557;sketch=1;curveFitting=1;jiggle=2;strokeColor=#006658;" vertex="1" parent="0">
          <mxGeometry y="398" width="291.25" height="26" as="geometry" />
        </mxCell>
        <mxCell id="RRcPQt79kSkmYTHiTDWC-74" value="-checkCastle()  " style="text;align=left;verticalAlign=top;spacingLeft=4;spacingRight=4;overflow=hidden;rotatable=0;points=[[0,0.5],[1,0.5]];portConstraint=eastwest;rounded=0;shadow=0;html=0;labelBackgroundColor=none;fontColor=#1D3557;sketch=1;curveFitting=1;jiggle=2;strokeColor=#006658;" vertex="1" parent="0">
          <mxGeometry y="424" width="291.25" height="26" as="geometry" />
        </mxCell>
        <mxCell id="RRcPQt79kSkmYTHiTDWC-75" value="-doCastle()  " style="text;align=left;verticalAlign=top;spacingLeft=4;spacingRight=4;overflow=hidden;rotatable=0;points=[[0,0.5],[1,0.5]];portConstraint=eastwest;rounded=0;shadow=0;html=0;labelBackgroundColor=none;fontColor=#1D3557;sketch=1;curveFitting=1;jiggle=2;strokeColor=#006658;" vertex="1" parent="0">
          <mxGeometry y="450" width="291.25" height="26" as="geometry" />
        </mxCell>
        <mxCell id="RRcPQt79kSkmYTHiTDWC-76" value="-checkPassant()  " style="text;align=left;verticalAlign=top;spacingLeft=4;spacingRight=4;overflow=hidden;rotatable=0;points=[[0,0.5],[1,0.5]];portConstraint=eastwest;rounded=0;shadow=0;html=0;labelBackgroundColor=none;fontColor=#1D3557;sketch=1;curveFitting=1;jiggle=2;strokeColor=#006658;" vertex="1" parent="0">
          <mxGeometry y="476" width="291.25" height="26" as="geometry" />
        </mxCell>
        <mxCell id="RRcPQt79kSkmYTHiTDWC-77" value="-doPassant()  " style="text;align=left;verticalAlign=top;spacingLeft=4;spacingRight=4;overflow=hidden;rotatable=0;points=[[0,0.5],[1,0.5]];portConstraint=eastwest;rounded=0;shadow=0;html=0;labelBackgroundColor=none;fontColor=#1D3557;sketch=1;curveFitting=1;jiggle=2;strokeColor=#006658;" vertex="1" parent="0">
          <mxGeometry y="502" width="291.25" height="26" as="geometry" />
        </mxCell>
        <mxCell id="RRcPQt79kSkmYTHiTDWC-78" value="-checkPawnIsPendingToPromove()  " style="text;align=left;verticalAlign=top;spacingLeft=4;spacingRight=4;overflow=hidden;rotatable=0;points=[[0,0.5],[1,0.5]];portConstraint=eastwest;rounded=0;shadow=0;html=0;labelBackgroundColor=none;fontColor=#1D3557;sketch=1;curveFitting=1;jiggle=2;strokeColor=#006658;" vertex="1" parent="0">
          <mxGeometry y="528" width="291.25" height="26" as="geometry" />
        </mxCell>
        <mxCell id="34" value="Position" style="swimlane;fontStyle=0;align=center;verticalAlign=top;childLayout=stackLayout;horizontal=1;startSize=26;horizontalStack=0;resizeParent=1;resizeLast=0;collapsible=1;marginBottom=0;rounded=0;shadow=0;strokeWidth=1;labelBackgroundColor=none;fillColor=#A8DADC;strokeColor=#006658;fontColor=#1D3557;sketch=1;curveFitting=1;jiggle=2;" parent="WIyWlLk6GJQsqaUBKTNV-1" vertex="1" collapsed="1">
          <mxGeometry x="1010" y="-760" width="170" height="26" as="geometry">
            <mxRectangle x="770" y="-750" width="200" height="198" as="alternateBounds" />
          </mxGeometry>
        </mxCell>
        <mxCell id="35" value="-posX: int" style="text;html=1;align=left;verticalAlign=middle;whiteSpace=wrap;rounded=0;labelBackgroundColor=none;fontColor=#1D3557;sketch=1;curveFitting=1;jiggle=2;" parent="34" vertex="1">
          <mxGeometry y="26" width="200" height="30" as="geometry" />
        </mxCell>
        <mxCell id="41" value="&amp;nbsp;-posY: int" style="text;html=1;align=left;verticalAlign=middle;whiteSpace=wrap;rounded=0;labelBackgroundColor=none;fontColor=#1D3557;sketch=1;curveFitting=1;jiggle=2;" parent="34" vertex="1">
          <mxGeometry y="56" width="200" height="30" as="geometry" />
        </mxCell>
        <mxCell id="37" value="" style="line;html=1;strokeWidth=1;align=left;verticalAlign=middle;spacingTop=-1;spacingLeft=3;spacingRight=3;rotatable=0;labelPosition=right;points=[];portConstraint=eastwest;labelBackgroundColor=none;fillColor=#A8DADC;strokeColor=#457B9D;fontColor=#1D3557;sketch=1;curveFitting=1;jiggle=2;" parent="34" vertex="1">
          <mxGeometry y="86" width="200" height="8" as="geometry" />
        </mxCell>
        <mxCell id="38" value="-isEqual(Position): boolean" style="text;align=left;verticalAlign=top;spacingLeft=4;spacingRight=4;overflow=hidden;rotatable=0;points=[[0,0.5],[1,0.5]];portConstraint=eastwest;rounded=0;shadow=0;html=0;labelBackgroundColor=none;fontColor=#1D3557;sketch=1;curveFitting=1;jiggle=2;" parent="34" vertex="1">
          <mxGeometry y="94" width="200" height="26" as="geometry" />
        </mxCell>
        <mxCell id="qDr4SndlKKc7MKBFsgg5-100" value="-increaseBy(int, int): Position" style="text;align=left;verticalAlign=top;spacingLeft=4;spacingRight=4;overflow=hidden;rotatable=0;points=[[0,0.5],[1,0.5]];portConstraint=eastwest;rounded=0;shadow=0;html=0;labelBackgroundColor=none;fontColor=#1D3557;sketch=1;curveFitting=1;jiggle=2;" parent="34" vertex="1">
          <mxGeometry y="120" width="200" height="26" as="geometry" />
        </mxCell>
        <mxCell id="39" value="-toString()" style="text;align=left;verticalAlign=top;spacingLeft=4;spacingRight=4;overflow=hidden;rotatable=0;points=[[0,0.5],[1,0.5]];portConstraint=eastwest;rounded=0;shadow=0;html=0;labelBackgroundColor=none;fontColor=#1D3557;sketch=1;curveFitting=1;jiggle=2;" parent="34" vertex="1">
          <mxGeometry y="146" width="200" height="26" as="geometry" />
        </mxCell>
        <mxCell id="qDr4SndlKKc7MKBFsgg5-101" value="-toString()" style="text;align=left;verticalAlign=top;spacingLeft=4;spacingRight=4;overflow=hidden;rotatable=0;points=[[0,0.5],[1,0.5]];portConstraint=eastwest;rounded=0;shadow=0;html=0;labelBackgroundColor=none;fontColor=#1D3557;sketch=1;curveFitting=1;jiggle=2;" parent="34" vertex="1">
          <mxGeometry y="172" width="200" height="26" as="geometry" />
        </mxCell>
        <mxCell id="45" value="&lt;Status&gt;" style="swimlane;fontStyle=0;align=center;verticalAlign=top;childLayout=stackLayout;horizontal=1;startSize=26;horizontalStack=0;resizeParent=1;resizeLast=0;collapsible=1;marginBottom=0;rounded=0;shadow=0;strokeWidth=1;labelBackgroundColor=none;fillColor=#A8DADC;strokeColor=#006658;fontColor=#1D3557;sketch=1;curveFitting=1;jiggle=2;" parent="WIyWlLk6GJQsqaUBKTNV-1" vertex="1" collapsed="1">
          <mxGeometry x="515" y="-850" width="170" height="26" as="geometry">
            <mxRectangle x="330" y="-790" width="160" height="176" as="alternateBounds" />
          </mxGeometry>
        </mxCell>
        <mxCell id="48" value="" style="line;html=1;strokeWidth=1;align=left;verticalAlign=middle;spacingTop=-1;spacingLeft=3;spacingRight=3;rotatable=0;labelPosition=right;points=[];portConstraint=eastwest;labelBackgroundColor=none;fillColor=#A8DADC;strokeColor=#457B9D;fontColor=#1D3557;sketch=1;curveFitting=1;jiggle=2;" parent="45" vertex="1">
          <mxGeometry y="26" width="160" height="8" as="geometry" />
        </mxCell>
        <mxCell id="50" value="+whoIsHere(): Color" style="text;align=left;verticalAlign=top;spacingLeft=4;spacingRight=4;overflow=hidden;rotatable=0;points=[[0,0.5],[1,0.5]];portConstraint=eastwest;rounded=0;shadow=0;html=0;labelBackgroundColor=none;fontColor=#1D3557;sketch=1;curveFitting=1;jiggle=2;" parent="45" vertex="1">
          <mxGeometry y="34" width="160" height="26" as="geometry" />
        </mxCell>
        <mxCell id="53" value="+hasPosition(): Boolean" style="text;align=left;verticalAlign=top;spacingLeft=4;spacingRight=4;overflow=hidden;rotatable=0;points=[[0,0.5],[1,0.5]];portConstraint=eastwest;rounded=0;shadow=0;html=0;labelBackgroundColor=none;fontColor=#1D3557;sketch=1;curveFitting=1;jiggle=2;" parent="45" vertex="1">
          <mxGeometry y="60" width="160" height="26" as="geometry" />
        </mxCell>
        <mxCell id="qDr4SndlKKc7MKBFsgg5-107" value="" style="endArrow=block;dashed=1;endFill=0;endSize=12;html=1;rounded=0;entryX=0.009;entryY=0.77;entryDx=0;entryDy=0;entryPerimeter=0;exitX=0.994;exitY=0.223;exitDx=0;exitDy=0;exitPerimeter=0;labelBackgroundColor=none;strokeColor=#006658;fontColor=default;sketch=1;curveFitting=1;jiggle=2;" parent="WIyWlLk6GJQsqaUBKTNV-1" source="48" target="zkfFHV4jXpPFQw0GAbJ--23" edge="1">
          <mxGeometry width="160" relative="1" as="geometry">
            <mxPoint x="640" y="-356.29" as="sourcePoint" />
            <mxPoint x="800" y="-356.29" as="targetPoint" />
          </mxGeometry>
        </mxCell>
        <mxCell id="qDr4SndlKKc7MKBFsgg5-108" value="" style="endArrow=open;endFill=1;endSize=12;html=1;rounded=0;exitX=0.5;exitY=1;exitDx=0;exitDy=0;entryX=0.007;entryY=0.336;entryDx=0;entryDy=0;entryPerimeter=0;labelBackgroundColor=none;strokeColor=#006658;fontColor=default;sketch=1;curveFitting=1;jiggle=2;" parent="WIyWlLk6GJQsqaUBKTNV-1" source="45" target="zkfFHV4jXpPFQw0GAbJ--9" edge="1">
          <mxGeometry width="160" relative="1" as="geometry">
            <mxPoint x="590" y="-210" as="sourcePoint" />
            <mxPoint x="770" y="80" as="targetPoint" />
            <Array as="points">
              <mxPoint x="600" y="-660" />
            </Array>
          </mxGeometry>
        </mxCell>
        <mxCell id="qDr4SndlKKc7MKBFsgg5-116" value="" style="endArrow=diamondThin;endFill=0;endSize=24;html=1;rounded=0;entryX=0.5;entryY=0;entryDx=0;entryDy=0;exitX=0.5;exitY=1;exitDx=0;exitDy=0;labelBackgroundColor=none;strokeColor=#006658;fontColor=default;sketch=1;curveFitting=1;jiggle=2;" parent="WIyWlLk6GJQsqaUBKTNV-1" source="0" target="zkfFHV4jXpPFQw0GAbJ--17" edge="1">
          <mxGeometry width="160" relative="1" as="geometry">
            <mxPoint x="950" y="-670" as="sourcePoint" />
            <mxPoint x="900" y="-620" as="targetPoint" />
          </mxGeometry>
        </mxCell>
        <mxCell id="RRcPQt79kSkmYTHiTDWC-54" value="Lógica del tablero general" style="text;html=1;align=center;verticalAlign=middle;whiteSpace=wrap;rounded=0;fontFamily=Architects Daughter;fontSource=https%3A%2F%2Ffonts.googleapis.com%2Fcss%3Ffamily%3DArchitects%2BDaughter;strokeWidth=1;fontSize=24;labelBackgroundColor=none;fontColor=#1D3557;strokeColor=none;" vertex="1" parent="WIyWlLk6GJQsqaUBKTNV-1">
          <mxGeometry x="480" y="-920" width="250" height="30" as="geometry" />
        </mxCell>
        <mxCell id="RRcPQt79kSkmYTHiTDWC-82" value="&lt;Engine&gt;" style="swimlane;fontStyle=0;align=center;verticalAlign=top;childLayout=stackLayout;horizontal=1;startSize=26;horizontalStack=0;resizeParent=1;resizeLast=0;collapsible=1;marginBottom=0;rounded=0;shadow=0;strokeWidth=1;labelBackgroundColor=none;fillColor=#A8DADC;strokeColor=#006658;fontColor=#1D3557;sketch=1;curveFitting=1;jiggle=2;" vertex="1" collapsed="1" parent="WIyWlLk6GJQsqaUBKTNV-1">
          <mxGeometry x="991.25" y="-916" width="160" height="26" as="geometry">
            <mxRectangle x="950" y="-890" width="195" height="60" as="alternateBounds" />
          </mxGeometry>
        </mxCell>
        <mxCell id="RRcPQt79kSkmYTHiTDWC-84" value="" style="line;html=1;strokeWidth=1;align=left;verticalAlign=middle;spacingTop=-1;spacingLeft=3;spacingRight=3;rotatable=0;labelPosition=right;points=[];portConstraint=eastwest;labelBackgroundColor=none;fillColor=#A8DADC;strokeColor=#457B9D;fontColor=#1D3557;sketch=1;curveFitting=1;jiggle=2;" vertex="1" parent="RRcPQt79kSkmYTHiTDWC-82">
          <mxGeometry y="26" width="195" height="8" as="geometry" />
        </mxCell>
        <mxCell id="RRcPQt79kSkmYTHiTDWC-94" value="" style="endArrow=block;endSize=16;endFill=0;html=1;rounded=0;sketch=1;hachureGap=4;jiggle=2;curveFitting=1;strokeColor=#006658;fontFamily=Architects Daughter;fontSource=https%3A%2F%2Ffonts.googleapis.com%2Fcss%3Ffamily%3DArchitects%2BDaughter;fontColor=#1D3557;fillColor=#A8DADC;exitX=0.5;exitY=0;exitDx=0;exitDy=0;entryX=0.5;entryY=1;entryDx=0;entryDy=0;" edge="1" parent="WIyWlLk6GJQsqaUBKTNV-1" source="RRcPQt79kSkmYTHiTDWC-96" target="RRcPQt79kSkmYTHiTDWC-82">
          <mxGeometry width="160" relative="1" as="geometry">
            <mxPoint x="980" y="-1000" as="sourcePoint" />
            <mxPoint x="1140" y="-1000" as="targetPoint" />
          </mxGeometry>
        </mxCell>
        <mxCell id="RRcPQt79kSkmYTHiTDWC-95" value="" style="endArrow=diamondThin;endFill=1;endSize=24;html=1;rounded=0;exitX=0;exitY=0.5;exitDx=0;exitDy=0;entryX=1;entryY=0.5;entryDx=0;entryDy=0;labelBackgroundColor=none;strokeColor=#006658;fontColor=default;sketch=1;curveFitting=1;jiggle=2;" edge="1" parent="WIyWlLk6GJQsqaUBKTNV-1" source="RRcPQt79kSkmYTHiTDWC-82" target="zkfFHV4jXpPFQw0GAbJ--17">
          <mxGeometry width="160" relative="1" as="geometry">
            <mxPoint x="847" y="-824" as="sourcePoint" />
            <mxPoint x="847" y="-750" as="targetPoint" />
          </mxGeometry>
        </mxCell>
        <mxCell id="RRcPQt79kSkmYTHiTDWC-96" value="&lt;EngineWithPromotion&gt;" style="swimlane;fontStyle=0;align=center;verticalAlign=top;childLayout=stackLayout;horizontal=1;startSize=26;horizontalStack=0;resizeParent=1;resizeLast=0;collapsible=1;marginBottom=0;rounded=0;shadow=0;strokeWidth=1;labelBackgroundColor=none;fillColor=#A8DADC;strokeColor=#006658;fontColor=#1D3557;sketch=1;curveFitting=1;jiggle=2;" vertex="1" collapsed="1" parent="WIyWlLk6GJQsqaUBKTNV-1">
          <mxGeometry x="991.25" y="-850" width="160" height="26" as="geometry">
            <mxRectangle x="950" y="-890" width="195" height="60" as="alternateBounds" />
          </mxGeometry>
        </mxCell>
        <mxCell id="RRcPQt79kSkmYTHiTDWC-97" value="" style="line;html=1;strokeWidth=1;align=left;verticalAlign=middle;spacingTop=-1;spacingLeft=3;spacingRight=3;rotatable=0;labelPosition=right;points=[];portConstraint=eastwest;labelBackgroundColor=none;fillColor=#A8DADC;strokeColor=#457B9D;fontColor=#1D3557;sketch=1;curveFitting=1;jiggle=2;" vertex="1" parent="RRcPQt79kSkmYTHiTDWC-96">
          <mxGeometry y="26" width="195" height="8" as="geometry" />
        </mxCell>
        <mxCell id="RRcPQt79kSkmYTHiTDWC-98" value="" style="endArrow=block;dashed=1;endFill=0;endSize=12;html=1;rounded=0;entryX=1;entryY=0.5;entryDx=0;entryDy=0;labelBackgroundColor=none;strokeColor=#006658;fontColor=default;sketch=1;curveFitting=1;jiggle=2;exitX=0.996;exitY=0;exitDx=0;exitDy=0;exitPerimeter=0;" edge="1" parent="WIyWlLk6GJQsqaUBKTNV-1" source="2" target="RRcPQt79kSkmYTHiTDWC-96">
          <mxGeometry width="160" relative="1" as="geometry">
            <mxPoint x="1030" y="-1520" as="sourcePoint" />
            <mxPoint x="1167" y="-1006" as="targetPoint" />
            <Array as="points">
              <mxPoint x="1200" y="-1330" />
              <mxPoint x="1200" y="-837" />
            </Array>
          </mxGeometry>
        </mxCell>
        <mxCell id="RRcPQt79kSkmYTHiTDWC-99" value="" style="endArrow=open;endFill=1;endSize=12;html=1;rounded=0;entryX=0;entryY=0.5;entryDx=0;entryDy=0;labelBackgroundColor=none;strokeColor=#006658;fontColor=default;sketch=1;curveFitting=1;jiggle=2;exitX=1;exitY=0.5;exitDx=0;exitDy=0;" edge="1" parent="WIyWlLk6GJQsqaUBKTNV-1" source="zkfFHV4jXpPFQw0GAbJ--13" target="34">
          <mxGeometry width="160" relative="1" as="geometry">
            <mxPoint x="921.88" y="-880" as="sourcePoint" />
            <mxPoint x="1072.88" y="-717" as="targetPoint" />
            <Array as="points" />
          </mxGeometry>
        </mxCell>
        <mxCell id="RRcPQt79kSkmYTHiTDWC-100" value="" style="endArrow=open;endFill=1;endSize=12;html=1;rounded=0;labelBackgroundColor=none;strokeColor=#006658;fontColor=default;sketch=1;curveFitting=1;jiggle=2;exitX=1;exitY=0.5;exitDx=0;exitDy=0;entryX=0;entryY=1;entryDx=0;entryDy=0;" edge="1" parent="WIyWlLk6GJQsqaUBKTNV-1" source="zkfFHV4jXpPFQw0GAbJ--6" target="34">
          <mxGeometry width="160" relative="1" as="geometry">
            <mxPoint x="894.51" y="-687" as="sourcePoint" />
            <mxPoint x="982.51" y="-687" as="targetPoint" />
            <Array as="points" />
          </mxGeometry>
        </mxCell>
      </root>
    </mxGraphModel>
  </diagram>
</mxfile>